<?xml version="1.0" standalone="no"?>
<!DOCTYPE svg PUBLIC "-//W3C//DTD SVG 20010904//EN"
 "http://www.w3.org/TR/2001/REC-SVG-20010904/DTD/svg10.dtd">
<svg version="1.0" xmlns="http://www.w3.org/2000/svg"
 width="400.000000pt" height="400.000000pt" viewBox="0 0 400.000000 400.000000"
 preserveAspectRatio="xMidYMid meet">
<metadata>
Created by potrace 1.14, written by Peter Selinger 2001-2017
</metadata>
<g transform="translate(0.000000,400.000000) scale(0.100000,-0.100000)"
fill="#000000" stroke="none">
<path d="M0 3736 l0 -264 32 -5 c18 -3 73 -9 123 -12 133 -8 175 -15 175 -27
0 -7 -35 -8 -107 -5 -139 7 -195 10 -210 8 -10 -1 -13 -103 -13 -475 0 -461 1
-474 19 -469 26 7 61 -14 61 -36 0 -19 -36 -71 -49 -71 -5 0 -13 15 -19 33 -8
25 -10 -10 -11 -155 l-1 -188 78 8 c81 7 235 9 362 3 74 -3 102 -11 128 -38 8
-7 19 -10 25 -6 8 5 8 8 -1 11 -20 6 -3 22 23 22 14 0 29 -9 35 -20 14 -26 28
-25 57 1 20 20 23 20 29 5 3 -9 13 -16 20 -16 8 0 26 -7 39 -16 14 -9 32 -13
42 -10 14 6 15 9 4 16 -10 5 5 11 42 15 30 4 60 4 65 1 11 -7 123 49 134 67 4
7 6 18 3 25 -2 6 3 12 13 12 14 0 14 2 3 9 -8 5 -37 8 -65 6 -28 -1 -35 0 -16
2 19 2 39 8 44 13 10 10 -20 78 -42 95 -13 11 -30 103 -31 170 -1 22 -2 63 -3
90 -2 28 3 63 10 78 19 38 1 157 -28 192 -7 8 -14 34 -15 57 -2 24 -6 69 -9
101 -6 61 -6 62 27 46 17 -8 16 -5 -5 13 -31 26 -37 44 -12 34 13 -5 14 -2 9
11 -9 20 -9 19 2 125 6 57 5 81 -4 94 -20 27 -16 44 9 41 17 -1 24 4 26 21 2
12 0 22 -5 21 -22 -4 -32 2 -27 16 4 8 10 12 15 9 5 -3 9 -2 9 3 5 105 46 226
95 275 12 13 28 40 35 60 14 38 30 42 30 7 0 -29 17 -23 29 11 5 17 16 30 23
29 10 0 10 -2 0 -6 -6 -2 -12 -11 -12 -19 0 -17 30 -19 30 -1 0 6 12 21 27 31
16 12 23 14 18 5 -7 -11 -3 -10 15 2 14 9 30 25 35 36 6 11 16 18 23 15 7 -2
19 2 27 8 11 9 15 9 15 1 0 -6 -4 -11 -10 -11 -5 0 -10 -5 -10 -12 0 -7 -12
-22 -27 -35 -16 -12 -23 -22 -17 -23 6 0 22 9 35 20 13 11 29 23 34 28 15 12
56 22 49 11 -8 -14 10 -11 32 6 25 19 31 19 37 -5 3 -13 11 -18 20 -14 10 4
16 -5 21 -30 4 -21 13 -36 21 -36 11 0 13 -19 11 -90 -3 -80 2 -136 19 -207 7
-28 25 -30 25 -4 0 11 4 22 10 26 5 3 6 13 3 21 -5 14 -3 15 16 5 19 -10 25
-9 41 11 l19 23 10 -25 c5 -14 10 -18 11 -10 0 12 3 12 14 -3 12 -15 14 -16
20 -2 3 8 17 15 31 15 14 0 25 6 25 13 0 9 9 12 29 9 16 -2 32 1 35 7 4 6 17
11 30 11 12 0 28 6 34 12 10 10 15 10 20 1 9 -14 24 -12 72 9 31 13 37 14 52
1 9 -8 32 -16 50 -16 18 -1 36 -6 39 -10 3 -5 25 -11 47 -14 37 -5 43 -3 50
18 l9 23 17 -26 c15 -23 22 -26 60 -22 31 4 48 1 59 -10 8 -8 17 -12 21 -9 3
4 6 -1 6 -11 0 -9 7 -19 16 -23 8 -3 13 -12 10 -19 -10 -25 11 -24 37 2 19 19
28 43 36 97 23 143 32 188 49 219 21 39 38 59 45 52 3 -3 8 8 12 25 4 17 11
31 16 31 5 0 9 9 9 21 0 11 6 27 14 34 12 12 15 12 20 -2 4 -9 4 -18 1 -21 -3
-3 -5 1 -6 9 0 8 -5 3 -10 -10 -11 -27 -3 -43 11 -21 8 13 10 12 10 -2 0 -23
9 -23 25 -1 13 17 14 17 33 0 19 -18 20 -17 42 13 l22 31 25 -23 c24 -23 25
-23 39 -4 8 11 14 15 14 9 0 -6 9 -13 20 -16 11 -3 20 -1 20 4 0 5 -6 9 -12 9
-16 0 12 20 29 20 8 0 8 -7 0 -30 -9 -24 -9 -33 4 -45 18 -18 48 -10 51 14 2
30 4 36 15 56 6 11 11 32 11 48 0 21 -5 27 -22 26 -11 0 -15 -3 -8 -6 6 -2 12
-17 12 -32 0 -25 -3 -27 -31 -23 -27 4 -29 7 -24 33 l7 29 -1496 0 -1496 0 0
-264z m3010 118 c0 -3 -7 -1 -15 6 -8 7 -15 17 -15 22 0 5 7 3 15 -6 8 -8 15
-18 15 -22z m-2785 -34 c18 -8 17 -9 -7 -9 -16 -1 -28 4 -28 9 0 12 8 12 35 0z
m14 -299 c9 -6 10 -11 2 -15 -13 -8 -31 1 -31 15 0 11 11 11 29 0z m-36 -151
c131 -19 137 -21 137 -35 0 -8 5 -15 11 -15 6 0 8 -8 5 -18 -4 -13 1 -22 18
-32 14 -7 27 -23 30 -36 4 -13 11 -24 16 -24 5 0 7 -7 4 -15 -4 -10 -20 -15
-48 -15 -58 0 -114 -18 -126 -40 -5 -10 -10 -36 -10 -57 0 -21 -9 -51 -19 -67
-17 -25 -17 -31 -5 -43 8 -8 14 -30 14 -49 l0 -35 -30 16 c-16 8 -36 15 -45
15 -16 0 -39 45 -30 60 3 4 -1 10 -9 13 -16 6 -27 55 -14 63 12 7 1 56 -15 66
-8 5 -7 11 2 21 15 19 -5 29 -32 15 -17 -9 -18 -3 -15 99 3 96 5 108 21 105 9
-2 17 2 17 8 0 13 32 13 123 0z m-156 -262 c-3 -8 -6 -5 -6 6 -1 11 2 17 5 13
3 -3 4 -12 1 -19z m828 -238 c-3 -5 -10 -10 -16 -10 -5 0 -9 5 -9 10 0 6 7 10
16 10 8 0 12 -4 9 -10z m-680 -394 c0 -12 -8 -20 -22 -22 -19 -3 -23 1 -23 22
0 21 4 25 23 22 14 -2 22 -10 22 -22z m-33 -106 c21 -6 39 -19 43 -30 3 -10
14 -20 23 -23 9 -2 -17 -4 -58 -5 -41 -1 -83 -5 -92 -8 -26 -8 -23 23 5 52 25
27 29 28 79 14z m751 -207 c-13 -2 -33 -2 -45 0 -13 2 -3 4 22 4 25 0 35 -2
23 -4z"/>
<path d="M3315 3926 c-4 -40 -10 -78 -14 -84 -3 -5 -42 -29 -85 -53 -118 -63
-142 -94 -91 -117 15 -7 25 -20 25 -32 0 -12 7 -34 15 -50 8 -16 16 -49 17
-74 1 -51 6 -54 46 -29 24 15 25 16 14 1 -22 -27 -5 -66 31 -73 134 -26 134
-26 112 -80 -15 -35 -68 -71 -87 -59 -6 4 -8 3 -4 -4 3 -6 -11 -20 -33 -33
-40 -22 -59 -58 -39 -71 9 -5 7 -13 -6 -27 -16 -17 -16 -21 -4 -21 12 0 14 -7
8 -37 -4 -21 -12 -50 -18 -65 -7 -16 -9 -54 -5 -92 5 -51 2 -71 -11 -90 -9
-14 -16 -33 -16 -41 0 -9 -11 -31 -24 -48 -22 -31 -42 -118 -29 -131 9 -9 16
-56 13 -91 -1 -16 -3 -51 -4 -77 0 -27 -5 -48 -10 -48 -4 0 -6 -6 -3 -14 3 -8
-1 -20 -9 -26 -8 -7 -14 -17 -14 -22 0 -6 -7 -34 -15 -62 -12 -40 -22 -56 -43
-65 -23 -11 -24 -14 -10 -22 14 -8 13 -13 -14 -39 -20 -21 -28 -37 -25 -50 3
-11 1 -20 -4 -20 -5 0 -20 -10 -34 -22 -19 -16 -22 -24 -14 -35 9 -10 8 -13
-5 -13 -10 0 -15 -4 -12 -9 3 -5 -8 -24 -24 -41 -17 -18 -28 -35 -25 -38 4 -4
64 -18 167 -39 15 -3 33 -12 40 -21 11 -14 10 -15 -7 -8 -11 4 -32 10 -46 13
-22 4 -27 1 -31 -21 -6 -31 -2 -35 48 -40 22 -2 46 -6 54 -9 27 -11 234 -59
270 -63 19 -3 64 -13 100 -23 36 -11 76 -21 90 -24 280 -54 410 -86 435 -107
13 -11 15 7 15 133 0 144 0 145 -25 161 -23 15 -26 23 -24 74 1 31 7 66 14 77
7 11 16 36 20 55 5 19 10 459 12 978 l3 942 -339 0 -339 0 -7 -74z m373 -1102
c22 -6 22 -7 -10 -31 -26 -19 -40 -23 -68 -17 -19 3 -52 8 -73 10 -51 5 -85
23 -66 35 16 10 182 12 217 3z m159 -705 c15 -6 46 -14 68 -19 l40 -8 -52 -1
c-51 -1 -66 -10 -68 -41 -7 -78 -14 -90 -78 -120 -62 -29 -62 -29 -97 -11 -34
17 -35 20 -32 67 4 67 10 82 32 89 11 4 26 12 32 18 36 35 104 46 155 26z m83
-199 c0 -25 -16 -33 -46 -26 -31 8 -33 43 -1 48 32 6 47 -2 47 -22z"/>
<path d="M2580 3525 c0 -14 -4 -25 -10 -25 -5 0 -10 -7 -10 -15 0 -8 -4 -15
-10 -15 -5 0 -10 -16 -10 -36 0 -19 -4 -43 -8 -52 -5 -9 -6 -30 -3 -47 l6 -29
21 22 c27 29 50 132 32 144 -9 5 -9 11 -3 16 6 4 16 19 22 35 11 24 11 27 -7
27 -15 0 -20 -7 -20 -25z"/>
<path d="M1525 3499 c5 -14 2 -25 -6 -30 -10 -6 -11 -11 -3 -16 18 -13 24 -42
14 -67 -5 -14 -5 -27 1 -33 6 -6 4 -14 -6 -23 -10 -8 -15 -9 -15 -1 0 6 -4 11
-10 11 -15 0 -12 -26 4 -39 11 -9 16 -9 21 0 6 8 10 7 16 -2 8 -12 11 -11 19
1 16 25 24 94 11 98 -6 2 -11 15 -11 30 0 32 -21 92 -33 92 -4 0 -5 -10 -2
-21z"/>
<path d="M2716 3351 c-9 -10 -16 -27 -16 -39 0 -13 -6 -22 -15 -22 -11 0 -13
8 -8 30 3 19 1 30 -6 30 -6 0 -11 -6 -11 -13 0 -9 -10 -12 -30 -9 -25 4 -30 1
-30 -17 0 -23 16 -29 23 -8 2 6 8 9 12 4 5 -4 3 -13 -3 -19 -15 -15 -16 -32
-2 -23 6 3 10 -3 10 -14 0 -12 4 -21 10 -21 5 0 7 -8 3 -17 -6 -16 -4 -16 15
1 12 10 28 16 37 13 8 -4 15 -2 15 3 0 5 10 12 22 16 19 6 19 7 5 16 -10 5
-22 6 -27 3 -18 -11 -10 15 11 36 15 15 18 24 10 32 -16 16 -14 27 4 21 8 -4
15 -4 15 -1 0 15 -30 13 -44 -2z"/>
<path d="M1368 3352 c-25 -3 -26 -4 -10 -21 9 -10 22 -16 28 -14 16 6 15 -54
-1 -61 -7 -2 -16 2 -19 10 -8 22 -25 17 -19 -6 4 -14 0 -20 -11 -20 -11 0 -15
-5 -11 -12 4 -7 -1 -4 -9 6 -9 11 -16 15 -16 8 0 -6 -8 -9 -17 -5 -10 3 -2 -9
17 -26 23 -21 41 -29 54 -25 10 4 23 0 28 -7 6 -10 7 -7 3 9 -6 21 -4 23 15
17 22 -7 23 -5 17 33 -3 27 -1 45 8 52 10 8 13 6 11 -7 -1 -13 8 -18 42 -20
46 -4 57 12 18 27 -13 5 -29 16 -34 26 -7 12 -11 13 -17 4 -5 -9 -13 -6 -29
12 -15 17 -29 23 -48 20z"/>
<path d="M1977 3313 c-4 -3 -7 -13 -7 -22 1 -13 3 -13 11 2 11 19 8 33 -4 20z"/>
<path d="M2080 3307 c0 -10 -4 -15 -10 -12 -14 9 -12 -19 2 -33 9 -9 9 -15 0
-24 -10 -10 -15 -10 -22 2 -8 12 -13 13 -30 3 -11 -7 -26 -13 -34 -13 -14 0
-26 -30 -26 -65 l1 -20 11 20 c23 39 36 46 36 19 0 -13 -4 -24 -9 -24 -5 0 -9
-7 -9 -15 0 -8 3 -15 8 -15 4 0 7 -13 7 -30 0 -16 -4 -29 -10 -27 -5 1 -8 13
-6 26 2 19 -1 22 -14 18 -9 -4 -14 -3 -10 2 3 5 0 11 -5 13 -6 2 -12 14 -13
28 -1 14 -10 33 -20 43 -15 15 -18 15 -23 2 -4 -8 -4 -24 -1 -36 4 -16 2 -19
-13 -14 -14 4 -20 -2 -27 -31 -8 -35 -9 -36 -25 -21 -11 11 -18 13 -20 5 -3
-8 -10 -8 -26 1 -13 7 -20 16 -17 21 10 16 -16 22 -28 7 -7 -8 -23 -17 -37
-20 -19 -5 -30 -18 -41 -49 -15 -40 -15 -46 1 -78 10 -19 21 -47 24 -63 l7
-28 -21 21 c-11 11 -20 29 -20 39 0 22 -9 30 -40 36 -23 5 -28 -20 -5 -29 8
-3 15 -11 15 -18 0 -9 -3 -8 -10 2 -5 8 -10 11 -10 6 0 -4 -11 -1 -25 8 -31
21 -33 20 -37 -6 -3 -24 52 -95 62 -79 3 6 10 -6 16 -25 10 -30 9 -33 -5 -21
-9 6 -22 19 -28 28 -7 10 -26 22 -42 27 -25 9 -34 7 -52 -9 -30 -26 -39 -24
-39 7 0 22 -2 25 -15 14 -21 -17 -19 -27 10 -52 14 -12 25 -30 25 -40 0 -12 7
-18 21 -18 60 0 190 -63 181 -88 -2 -6 -8 -12 -13 -12 -6 0 -7 5 -3 12 5 7 0
9 -14 6 -12 -4 -20 -1 -19 4 1 6 -4 13 -10 15 -8 3 -13 -4 -13 -15 0 -21 17
-31 53 -33 17 -1 14 -4 -10 -11 -41 -13 -43 -28 -4 -28 34 0 44 -10 30 -30 -5
-10 -9 -11 -9 -3 0 9 -14 10 -50 6 -31 -4 -50 -2 -50 4 0 6 -11 13 -25 15 -21
5 -25 2 -20 -13 6 -18 -6 -23 -52 -22 -7 1 -13 -5 -13 -13 0 -8 -5 -14 -12
-14 -9 0 -9 -3 0 -12 9 -9 16 -8 30 5 24 22 50 24 32 2 -7 -8 -18 -15 -26 -15
-7 0 -18 -9 -24 -20 -15 -28 -52 -35 -89 -16 -17 9 -31 12 -31 6 0 -5 -7 -10
-15 -10 -17 0 -75 -48 -75 -62 0 -11 -25 -38 -35 -38 -3 0 6 17 20 37 27 40
32 63 14 63 -6 0 -9 7 -5 15 7 19 -4 19 -32 -1 -13 -9 -21 -22 -19 -29 3 -6
-4 -20 -15 -29 -16 -14 -17 -20 -8 -32 10 -12 8 -14 -14 -14 -14 0 -26 -2 -26
-5 0 -13 43 -46 55 -42 7 3 17 1 23 -5 17 -17 65 18 57 42 -3 10 -1 21 5 25 5
3 10 1 10 -4 0 -17 27 -13 34 5 4 9 15 14 28 12 13 -2 28 3 34 11 25 32 83 -5
127 -81 15 -26 35 -52 45 -57 32 -17 83 -20 127 -7 52 16 79 5 71 -28 -3 -12
-1 -35 3 -51 6 -18 10 -22 10 -12 1 11 7 17 14 14 6 -2 11 -9 10 -14 -1 -6 9
-9 22 -7 16 1 25 -3 25 -12 0 -8 -5 -14 -11 -14 -7 0 -9 -13 -4 -37 9 -51 9
-94 1 -118 -9 -26 33 -91 85 -129 43 -33 51 -56 18 -56 -29 0 -15 -17 21 -25
18 -4 27 -11 24 -19 -6 -16 24 -25 50 -16 14 4 16 9 8 14 -7 4 -12 10 -12 14
0 4 38 47 85 95 82 85 103 124 75 142 -5 3 -10 14 -10 24 0 21 22 71 33 71 4
0 7 8 7 18 -1 15 -2 15 -13 1 -8 -10 -27 -16 -55 -16 -27 0 -47 -5 -53 -14
-11 -18 -12 -32 -1 -25 5 3 16 -8 26 -25 9 -16 14 -29 10 -29 -3 0 -1 -6 5
-14 9 -11 1 -15 -46 -22 -86 -12 -174 0 -173 23 1 15 25 38 54 51 23 10 26 15
16 27 -7 8 -9 15 -4 15 5 0 22 11 38 25 16 14 32 25 35 25 3 0 6 14 7 30 1 17
-2 30 -6 30 -4 0 -10 9 -13 19 -3 13 0 18 8 15 14 -6 44 21 46 39 1 7 0 29 -1
50 -1 21 3 37 9 37 6 0 11 8 11 19 0 10 9 21 20 24 14 3 20 14 20 31 0 27 15
35 23 14 3 -8 6 -6 6 5 1 9 6 17 12 17 6 0 9 9 6 19 -2 10 -1 25 4 32 6 10 9
6 9 -13 0 -20 4 -26 15 -22 8 4 15 16 15 28 1 19 2 19 11 4 5 -10 17 -18 24
-18 17 0 20 -16 5 -25 -5 -3 -10 -14 -10 -24 0 -10 -7 -32 -16 -50 -8 -17 -14
-48 -12 -68 2 -30 -1 -39 -18 -48 -11 -5 -19 -16 -16 -23 7 -21 30 -13 36 13
8 31 47 34 91 7 101 -62 200 -21 247 103 14 34 20 40 42 37 14 -2 26 1 26 7 0
6 16 -1 36 -14 20 -13 52 -27 73 -31 20 -4 41 -10 47 -15 7 -6 10 -2 9 11 -1
11 -21 34 -45 51 -38 28 -53 32 -114 34 -90 4 -86 3 -86 16 0 6 9 8 20 4 11
-4 20 -2 20 4 0 6 -11 13 -25 17 -14 3 -22 10 -19 16 3 5 0 9 -7 7 -29 -3 -49
1 -49 12 0 21 -34 38 -75 40 -22 0 -51 4 -65 8 -24 7 -24 8 -6 18 19 10 18 12
-7 35 -21 19 -24 27 -14 37 9 10 8 11 -5 6 -10 -4 -18 -11 -18 -16 0 -5 -7 -9
-15 -9 -8 0 -15 5 -15 10 0 6 -8 10 -17 9 -11 0 -13 -3 -5 -6 6 -2 12 -12 12
-20 0 -9 6 -13 15 -9 8 3 15 2 15 -3 0 -5 -9 -11 -20 -14 -12 -3 -20 0 -20 8
0 7 -7 18 -15 25 -10 8 -12 17 -5 30 5 9 7 42 5 74 -3 33 0 56 5 56 6 0 10 12
10 26 0 16 -4 23 -11 18 -8 -4 -8 -1 -1 13 6 10 22 19 39 20 26 2 26 1 6 -7
-31 -12 -29 -30 2 -30 14 0 25 -4 25 -10 0 -5 -7 -10 -16 -10 -13 0 -14 -3 -5
-14 8 -10 9 -16 1 -21 -5 -3 -10 -1 -10 5 0 6 -5 8 -10 5 -6 -4 -7 -11 -4 -17
4 -6 0 -14 -7 -19 -11 -7 -11 -9 2 -9 22 0 33 -29 14 -36 -8 -4 -15 -15 -15
-26 0 -15 4 -18 22 -12 12 3 31 15 42 26 12 11 36 26 54 35 17 8 32 22 32 29
0 8 7 14 16 14 8 0 12 4 9 10 -3 5 0 7 8 4 18 -7 70 14 63 25 -8 13 -119 6
-124 -8 -2 -6 -8 -11 -14 -11 -5 0 1 14 13 31 22 31 22 32 3 47 -18 14 -18 14
4 9 14 -3 22 -1 22 8 0 7 11 21 25 31 14 10 25 23 25 28 0 6 -5 5 -12 -2 -15
-15 -31 -16 -22 0 5 7 3 8 -6 3 -10 -6 -12 -4 -7 9 4 10 3 15 -4 11 -5 -4 -7
-15 -4 -25 4 -13 -1 -19 -20 -24 -26 -7 -45 -1 -45 12 0 4 18 26 40 50 24 25
33 42 25 42 -8 0 -15 6 -15 14 0 8 -5 16 -12 18 -7 3 -13 20 -15 39 -2 30 -8
65 -13 79 -1 3 -5 -6 -9 -20 -4 -15 -3 -28 3 -33 7 -5 0 -17 -19 -33 l-30 -26
27 6 c32 7 33 -3 3 -69 -15 -34 -19 -37 -25 -21 -6 19 -7 19 -13 -3 -4 -15
-12 -22 -24 -19 -14 3 -18 13 -18 44 0 37 -2 40 -17 30 -20 -12 -24 -26 -8
-26 6 0 10 -5 10 -11 0 -6 -7 -9 -15 -5 -8 3 -15 1 -15 -4 0 -6 -4 -10 -10
-10 -5 0 -10 9 -10 20 0 17 -5 19 -25 14 -15 -4 -25 -2 -25 5 0 6 5 11 10 11
13 0 13 77 -1 85 -6 4 -8 13 -5 21 3 8 1 14 -4 14 -6 0 -10 -5 -10 -11 0 -6
-7 -8 -16 -5 -13 5 -15 1 -10 -18 3 -14 0 -28 -8 -35 -11 -9 -13 -4 -11 26 3
52 4 55 14 49 18 -12 18 55 0 77 -16 20 -18 20 -19 4z m-17 -118 c-6 -22 -28
-21 -28 2 0 8 -4 17 -9 20 -5 4 -5 12 -1 19 11 18 44 -17 38 -41z m-36 -61
c-3 -8 -6 -5 -6 6 -1 11 2 17 5 13 3 -3 4 -12 1 -19z m75 -35 c-3 -24 -9 -31
-23 -30 -10 1 -19 5 -19 9 0 4 -7 8 -15 8 -8 0 -15 5 -15 11 0 6 7 9 15 5 10
-3 15 1 15 13 0 13 7 18 23 17 19 -1 22 -6 19 -33z m98 -66 c0 -14 -20 -37
-32 -37 -13 0 -9 38 5 43 21 9 27 7 27 -6z m-313 -59 c-3 -7 -5 -2 -5 12 0 14
2 19 5 13 2 -7 2 -19 0 -25z m-87 -108 c0 -5 -4 -10 -10 -10 -5 0 -10 5 -10
10 0 6 5 10 10 10 6 0 10 -4 10 -10z m15 -40 c3 -5 1 -10 -4 -10 -6 0 -11 5
-11 10 0 6 2 10 4 10 3 0 8 -4 11 -10z m-228 -15 c0 -18 -19 -15 -25 3 -2 7 3
12 11 12 7 0 14 -7 14 -15z m637 -116 c-3 -5 -10 -7 -15 -3 -5 3 -7 10 -3 15
3 5 10 7 15 3 5 -3 7 -10 3 -15z m-394 -189 c2 18 4 20 7 8 2 -10 9 -18 14
-18 5 0 9 -9 9 -20 0 -11 5 -20 10 -20 6 0 10 -10 10 -23 0 -29 10 -40 24 -28
8 6 11 1 10 -17 -2 -45 -33 -120 -52 -127 -23 -9 -30 3 -37 60 -4 30 -10 55
-14 55 -8 0 -31 74 -31 100 0 11 -4 20 -10 20 -5 0 -10 8 -10 18 0 10 7 19 15
19 8 0 15 -6 15 -14 0 -26 20 -13 21 15 2 21 3 18 9 -13 5 -30 8 -34 10 -15z
m637 17 c4 -8 16 -16 26 -20 9 -3 17 -12 17 -18 0 -9 -3 -9 -14 0 -17 14 -81
18 -119 7 -27 -8 -27 -7 -16 16 9 20 19 25 54 26 27 1 47 -3 52 -11z m-977 -2
c0 -2 -10 -10 -22 -16 -21 -11 -22 -11 -9 4 13 16 31 23 31 12z m175 -21 c-24
-18 -45 -18 -45 -1 0 21 8 25 37 19 25 -5 25 -6 8 -18z m692 -36 c15 -19 23
-72 13 -88 -7 -11 -13 -11 -34 4 -37 24 -37 96 -1 96 7 0 17 -6 22 -12z m146
-50 c-25 -42 -48 -51 -31 -11 7 15 17 31 23 35 6 5 6 8 0 8 -5 0 -3 5 5 10 23
14 24 -6 3 -42z m-811 -20 c-6 -6 -15 -8 -19 -4 -4 4 -1 11 7 16 19 12 27 3
12 -12z m365 -68 c2 -24 -8 -32 -27 -20 -13 8 -12 12 5 24 11 9 20 16 20 16 1
0 1 -9 2 -20z m-77 -50 c0 -5 -7 -10 -16 -10 -8 0 -12 5 -9 10 3 6 10 10 16
10 5 0 9 -4 9 -10z m-46 -37 c-16 -12 -17 -15 -4 -23 13 -8 12 -10 -2 -10 -11
0 -18 7 -18 18 0 23 5 29 26 29 14 0 14 -2 -2 -14z m51 -33 c3 -5 -3 -10 -15
-10 -12 0 -18 5 -15 10 3 6 10 10 15 10 5 0 12 -4 15 -10z"/>
<path d="M2143 3283 c-20 -7 -15 -23 7 -23 11 0 20 4 20 9 0 13 -12 19 -27 14z"/>
<path d="M1158 3262 c9 -11 21 -17 26 -14 5 3 1 11 -9 19 -27 19 -38 16 -17
-5z"/>
<path d="M2431 3261 c-10 -6 -9 -10 3 -14 8 -3 18 -2 21 3 8 13 -9 20 -24 11z"/>
<path d="M1620 3236 c0 -9 7 -16 16 -16 9 0 14 5 12 12 -6 18 -28 21 -28 4z"/>
<path d="M1191 3191 c24 -33 42 -42 33 -16 -4 8 -10 15 -15 15 -5 0 -8 5 -6
12 1 6 -6 14 -16 16 -17 3 -17 1 4 -27z"/>
<path d="M2400 3206 c0 -2 7 -7 16 -10 8 -3 12 -2 9 4 -6 10 -25 14 -25 6z"/>
<path d="M2764 3202 c-14 -10 -46 -63 -41 -68 2 -3 16 9 30 26 16 19 31 28 41
24 22 -8 20 3 -2 15 -10 5 -22 7 -28 3z"/>
<path d="M1066 3175 c4 -8 10 -15 15 -15 5 0 9 7 9 15 0 8 -7 15 -15 15 -9 0
-12 -6 -9 -15z"/>
<path d="M2700 3175 c-7 -8 -8 -15 -2 -15 5 0 15 7 22 15 7 8 8 15 2 15 -5 0
-15 -7 -22 -15z"/>
<path d="M1673 3162 c1 -14 5 -18 11 -12 7 7 6 14 -1 21 -9 9 -12 7 -10 -9z"/>
<path d="M2506 3135 c-9 -26 -7 -32 5 -12 6 10 9 21 6 23 -2 3 -7 -2 -11 -11z"/>
<path d="M1556 3124 c-4 -10 -1 -14 6 -12 15 5 23 28 10 28 -5 0 -13 -7 -16
-16z"/>
<path d="M2186 3125 c4 -8 8 -15 10 -15 2 0 4 7 4 15 0 8 -4 15 -10 15 -5 0
-7 -7 -4 -15z"/>
<path d="M2285 3130 c3 -5 8 -10 11 -10 2 0 4 5 4 10 0 6 -5 10 -11 10 -5 0
-7 -4 -4 -10z"/>
<path d="M2320 3120 c0 -5 5 -10 11 -10 5 0 7 5 4 10 -3 6 -8 10 -11 10 -2 0
-4 -4 -4 -10z"/>
<path d="M1380 3097 c0 -16 32 -47 48 -47 15 0 3 31 -17 47 -21 16 -31 16 -31
0z"/>
<path d="M1573 3093 c-15 -5 -18 -43 -3 -43 12 0 32 38 23 43 -5 2 -14 2 -20
0z"/>
<path d="M1017 3069 c-9 -6 -17 -14 -17 -19 0 -10 38 -1 45 11 9 13 -9 18 -28
8z"/>
<path d="M1150 3055 c10 -12 10 -15 0 -15 -24 0 9 -27 40 -34 17 -3 29 -9 28
-13 -6 -19 25 -69 51 -84 21 -12 33 -14 47 -6 16 9 17 8 7 -5 -14 -16 -8 -28
14 -28 7 0 13 7 13 15 0 8 7 15 15 15 24 0 18 17 -20 58 -19 22 -32 42 -28 45
3 4 25 4 47 1 36 -5 39 -4 21 8 -11 7 -21 20 -23 28 -5 23 -24 37 -29 23 -3
-8 -14 -11 -29 -7 -19 5 -24 2 -24 -13 0 -18 -4 -19 -55 -10 -34 7 -55 15 -55
24 0 7 -7 13 -16 13 -14 0 -14 -3 -4 -15z m145 -55 c4 -6 -8 -10 -29 -10 -20
0 -36 5 -36 10 0 6 13 10 29 10 17 0 33 -4 36 -10z"/>
<path d="M1410 3026 c0 -9 5 -16 10 -16 6 0 10 4 10 9 0 6 -4 13 -10 16 -5 3
-10 -1 -10 -9z"/>
<path d="M1536 3025 c4 -8 8 -15 10 -15 2 0 4 7 4 15 0 8 -4 15 -10 15 -5 0
-7 -7 -4 -15z"/>
<path d="M1620 3030 c0 -5 5 -10 11 -10 5 0 7 5 4 10 -3 6 -8 10 -11 10 -2 0
-4 -4 -4 -10z"/>
<path d="M2360 3016 c0 -2 7 -6 15 -10 8 -3 15 -1 15 4 0 6 -7 10 -15 10 -8 0
-15 -2 -15 -4z"/>
<path d="M2605 3010 c-3 -5 -1 -10 4 -10 6 0 11 5 11 10 0 6 -2 10 -4 10 -3 0
-8 -4 -11 -10z"/>
<path d="M3105 3013 c-11 -3 -24 -9 -29 -14 -6 -5 -21 -9 -35 -10 -15 0 -20
-3 -13 -6 13 -5 17 -33 4 -33 -11 0 -64 -51 -58 -57 2 -3 24 4 48 15 49 23
108 76 108 98 0 7 -1 13 -2 13 -2 -1 -12 -3 -23 -6z"/>
<path d="M2648 2978 c9 -9 15 -9 24 0 9 9 7 12 -12 12 -19 0 -21 -3 -12 -12z"/>
<path d="M1506 2968 c-15 -8 -16 -12 -5 -19 18 -11 32 -11 25 0 -4 5 -1 11 6
13 7 3 8 7 2 10 -5 4 -18 2 -28 -4z"/>
<path d="M980 2955 c0 -10 7 -15 18 -13 21 4 19 22 -2 26 -10 2 -16 -3 -16
-13z"/>
<path d="M2445 2939 c-11 -17 1 -21 15 -4 8 9 8 15 2 15 -6 0 -14 -5 -17 -11z"/>
<path d="M2480 2930 c0 -5 5 -10 10 -10 6 0 10 5 10 10 0 6 -4 10 -10 10 -5 0
-10 -4 -10 -10z"/>
<path d="M1475 2920 c3 -5 8 -10 11 -10 2 0 4 5 4 10 0 6 -5 10 -11 10 -5 0
-7 -4 -4 -10z"/>
<path d="M1114 2902 c22 -26 36 -28 36 -7 0 8 -4 15 -9 15 -5 0 -18 3 -28 7
-17 6 -17 5 1 -15z"/>
<path d="M1390 2880 c0 -5 5 -10 10 -10 6 0 10 5 10 10 0 6 -4 10 -10 10 -5 0
-10 -4 -10 -10z"/>
<path d="M2803 2883 c-30 -6 -32 -43 -2 -43 15 0 19 -5 15 -15 -7 -18 -5 -18
29 -1 18 9 22 16 13 20 -10 5 -10 7 0 12 6 3 12 12 12 20 0 14 -21 16 -67 7z"/>
<path d="M1160 2876 c0 -2 7 -7 16 -10 8 -3 12 -2 9 4 -6 10 -25 14 -25 6z"/>
<path d="M2577 2850 c-6 -23 3 -26 21 -8 16 16 15 28 -2 28 -7 0 -16 -9 -19
-20z"/>
<path d="M2625 2860 c-3 -5 -2 -10 4 -10 5 0 13 5 16 10 3 6 2 10 -4 10 -5 0
-13 -4 -16 -10z"/>
<path d="M1360 2851 c0 -5 6 -12 13 -14 9 -4 8 -8 -3 -16 -13 -9 -12 -12 5
-25 26 -20 41 -14 37 14 -3 30 -52 68 -52 41z"/>
<path d="M1230 2830 c0 -5 9 -10 20 -10 11 0 20 5 20 10 0 6 -9 10 -20 10 -11
0 -20 -4 -20 -10z"/>
<path d="M2455 2810 c4 -6 -5 -10 -19 -10 -14 0 -26 -4 -26 -9 0 -5 -8 -12
-17 -14 -10 -3 -4 -5 13 -6 18 -1 38 6 47 17 20 21 22 32 6 32 -5 0 -7 -4 -4
-10z"/>
<path d="M2550 2811 c0 -5 -8 -12 -17 -14 -11 -3 -7 -5 10 -6 27 -1 36 12 17
24 -5 3 -10 2 -10 -4z"/>
<path d="M2620 2800 c0 -5 4 -10 9 -10 6 0 13 5 16 10 3 6 -1 10 -9 10 -9 0
-16 -4 -16 -10z"/>
<path d="M1478 2759 c6 -7 12 -19 12 -26 0 -11 -5 -10 -23 1 -14 10 -27 12
-37 6 -12 -7 -11 -10 5 -16 26 -10 36 -25 29 -46 -6 -20 -3 -21 20 -12 9 3 16
12 16 18 0 9 12 11 45 6 46 -7 75 7 36 17 -27 7 -27 23 0 23 43 0 -7 29 -62
36 -45 5 -52 4 -41 -7z"/>
<path d="M2550 2760 c0 -5 7 -10 15 -10 8 0 15 5 15 10 0 6 -7 10 -15 10 -8 0
-15 -4 -15 -10z"/>
<path d="M2440 2730 c-20 -12 -5 -24 16 -12 9 5 12 12 7 15 -5 3 -15 2 -23 -3z"/>
<path d="M2385 2720 c-3 -5 -1 -10 4 -10 6 0 11 5 11 10 0 6 -2 10 -4 10 -3 0
-8 -4 -11 -10z"/>
<path d="M2430 2670 c0 -5 5 -10 10 -10 6 0 10 5 10 10 0 6 -4 10 -10 10 -5 0
-10 -4 -10 -10z"/>
<path d="M2564 2605 c21 -16 32 -13 21 4 -3 6 -14 11 -23 11 -15 -1 -15 -2 2
-15z"/>
<path d="M2853 2432 c-13 -2 -23 -8 -23 -13 0 -13 37 -11 45 2 9 14 5 16 -22
11z"/>
<path d="M1320 2419 c0 -5 5 -7 10 -4 6 3 10 8 10 11 0 2 -4 4 -10 4 -5 0 -10
-5 -10 -11z"/>
<path d="M2840 2392 c0 -5 11 -12 25 -15 16 -3 24 0 22 7 -4 14 -47 21 -47 8z"/>
<path d="M1111 2356 c-22 -26 17 -80 52 -70 9 3 17 1 17 -5 0 -24 18 -9 32 28
l16 39 -29 -8 c-20 -6 -28 -5 -26 3 1 7 -4 11 -12 9 -7 -1 -19 2 -26 8 -9 7
-16 6 -24 -4z m79 -40 c0 -3 -4 -8 -10 -11 -5 -3 -10 -1 -10 4 0 6 5 11 10 11
6 0 10 -2 10 -4z"/>
<path d="M2840 2340 c0 -20 4 -22 70 -25 45 -2 54 3 39 21 -8 10 -22 13 -40 9
-15 -4 -37 -1 -48 5 -18 9 -21 8 -21 -10z"/>
<path d="M1321 2340 c-6 -3 -6 -11 -2 -19 9 -14 71 -7 71 9 0 10 -56 19 -69
10z"/>
<path d="M2715 2330 c-3 -5 3 -10 14 -10 12 0 21 5 21 10 0 6 -6 10 -14 10 -8
0 -18 -4 -21 -10z"/>
<path d="M1296 2283 c-3 -7 -1 -15 3 -18 5 -3 7 -14 4 -25 -3 -11 3 -30 14
-44 16 -20 23 -22 33 -13 10 9 12 9 8 -4 -4 -11 6 -20 34 -32 43 -19 71 -13
41 8 -10 7 -15 17 -11 21 5 4 16 0 26 -9 10 -10 28 -17 40 -17 11 0 24 -4 27
-10 3 -5 -1 -10 -9 -10 -14 0 -14 -3 -4 -20 19 -30 34 -31 62 -5 30 28 32 35
11 35 -21 0 -19 27 3 39 14 8 15 10 2 15 -8 3 -22 5 -30 4 -36 -3 -70 3 -70
12 0 6 6 10 14 10 8 0 17 4 20 9 3 4 -6 7 -19 5 -14 -1 -25 2 -25 7 0 6 -4 8
-9 5 -5 -4 -7 3 -4 14 4 16 0 20 -21 20 -15 0 -24 4 -21 10 4 6 -17 9 -54 7
-37 -1 -63 -7 -65 -14z m131 -39 c-3 -3 -12 -4 -19 -1 -8 3 -5 6 6 6 11 1 17
-2 13 -5z m18 -34 c-3 -5 -13 -10 -21 -10 -8 0 -14 -5 -14 -12 0 -6 -3 -8 -6
-5 -10 9 16 37 33 37 8 0 11 -4 8 -10z m105 -66 c0 -14 -4 -23 -9 -20 -5 3 -7
15 -4 26 7 28 13 25 13 -6z"/>
<path d="M2106 2281 c4 -9 0 -19 -11 -28 -13 -8 -16 -16 -9 -23 6 -6 15 -3 26
9 15 17 15 21 1 38 -8 10 -11 12 -7 4z"/>
<path d="M2166 2259 c-28 -33 -28 -51 0 -28 13 11 18 11 21 2 8 -24 23 -13 23
16 0 43 -14 46 -44 10z"/>
<path d="M2247 2283 c-4 -3 -7 -11 -7 -17 0 -6 5 -5 12 2 6 6 9 14 7 17 -3 3
-9 2 -12 -2z"/>
<path d="M2885 2280 c3 -5 13 -10 21 -10 8 0 14 5 14 10 0 6 -9 10 -21 10 -11
0 -17 -4 -14 -10z"/>
<path d="M2685 2270 c3 -5 8 -10 11 -10 2 0 4 5 4 10 0 6 -5 10 -11 10 -5 0
-7 -4 -4 -10z"/>
<path d="M1118 2263 c14 -3 22 -10 19 -17 -4 -9 2 -11 20 -8 l26 5 -24 13
c-13 7 -33 13 -44 12 -16 -1 -16 -2 3 -5z"/>
<path d="M2583 2253 c-9 -7 -13 -13 -7 -13 5 0 0 -6 -10 -12 -18 -10 -15 -12
25 -24 56 -17 98 -18 52 -1 -17 7 -35 15 -39 20 -12 12 29 8 56 -6 35 -18 70
-27 70 -17 0 4 -7 10 -15 14 -8 3 -15 12 -15 21 0 8 -7 15 -15 15 -8 0 -15 3
-15 8 0 12 -68 8 -87 -5z"/>
<path d="M2718 2233 c7 -3 16 -2 19 1 4 3 -2 6 -13 5 -11 0 -14 -3 -6 -6z"/>
<path d="M1132 2197 c-9 -10 -5 -13 15 -12 15 0 28 6 31 13 5 16 -32 16 -46
-1z"/>
<path d="M1700 2189 c-11 -20 -11 -20 14 -4 30 20 32 25 11 25 -8 0 -19 -9
-25 -21z"/>
<path d="M2518 2202 c-28 -6 -21 -29 10 -34 16 -2 34 -2 40 0 19 6 14 22 -7
22 -11 0 -21 4 -23 8 -1 4 -11 6 -20 4z"/>
<path d="M2085 2190 c3 -5 8 -10 11 -10 2 0 4 5 4 10 0 6 -5 10 -11 10 -5 0
-7 -4 -4 -10z"/>
<path d="M1610 2145 c-8 -9 -8 -15 -2 -15 12 0 26 19 19 26 -2 2 -10 -2 -17
-11z"/>
<path d="M2500 2156 c0 -2 7 -9 15 -16 13 -11 14 -10 9 4 -5 14 -24 23 -24 12z"/>
<path d="M2637 2143 c-12 -11 -8 -21 12 -26 13 -3 21 1 24 14 4 13 0 19 -12
19 -10 0 -21 -3 -24 -7z"/>
<path d="M1340 2130 c0 -5 5 -10 11 -10 5 0 7 5 4 10 -3 6 -8 10 -11 10 -2 0
-4 -4 -4 -10z"/>
<path d="M1383 2110 c5 -29 43 -53 78 -48 16 3 29 1 29 -4 0 -4 9 -8 20 -8 30
0 14 25 -23 37 -18 6 -49 18 -69 27 -37 16 -38 16 -35 -4z"/>
<path d="M2452 2122 c-9 -3 -7 -9 8 -19 13 -9 25 -12 31 -6 11 11 -21 32 -39
25z"/>
<path d="M1070 2080 c-13 -8 -13 -10 2 -10 9 0 20 5 23 10 8 13 -5 13 -25 0z"/>
<path d="M1275 2080 c-4 -6 7 -10 24 -10 17 0 31 5 31 10 0 6 -11 10 -24 10
-14 0 -28 -4 -31 -10z"/>
<path d="M2736 2064 c-8 -22 -8 -24 8 -24 15 0 28 24 19 34 -11 10 -21 7 -27
-10z"/>
<path d="M2560 2060 c0 -5 9 -10 19 -10 11 0 26 -3 35 -6 11 -4 16 -1 16 10 0
12 -10 16 -35 16 -19 0 -35 -4 -35 -10z"/>
<path d="M1270 2040 c0 -5 -12 -11 -27 -11 -26 -2 -27 -2 -4 -6 18 -4 21 -7
11 -13 -11 -7 -11 -12 -2 -23 7 -7 9 -17 5 -20 -3 -4 0 -14 8 -23 13 -16 11
-17 -13 -12 -20 4 -28 0 -31 -13 -3 -10 1 -23 8 -29 10 -8 15 -6 20 10 3 11
11 18 16 15 5 -4 5 -14 -1 -25 -8 -15 -17 -18 -46 -13 -35 6 -36 5 -23 -16 17
-27 25 -26 85 4 27 14 65 28 84 31 19 4 44 13 55 20 11 8 26 14 35 14 18 0 43
37 35 51 -4 5 8 15 25 23 24 10 28 15 16 19 -9 4 -16 1 -16 -6 0 -9 -2 -9 -8
-1 -4 7 -43 15 -87 18 -44 4 -95 9 -112 12 -20 3 -33 1 -33 -6z m25 -150 c3
-5 -1 -10 -10 -10 -9 0 -13 5 -10 10 3 6 8 10 10 10 2 0 7 -4 10 -10z"/>
<path d="M2680 2040 c0 -5 5 -10 10 -10 6 0 10 5 10 10 0 6 -4 10 -10 10 -5 0
-10 -4 -10 -10z"/>
<path d="M2603 2013 c-13 -2 -36 -17 -52 -33 -24 -25 -26 -30 -12 -36 28 -12
251 -18 251 -6 0 6 -6 13 -12 15 -10 4 -10 6 0 6 6 1 12 9 12 20 0 30 -106 50
-187 34z"/>
<path d="M1130 1960 c0 -5 5 -10 10 -10 6 0 10 5 10 10 0 6 -4 10 -10 10 -5 0
-10 -4 -10 -10z"/>
<path d="M1620 1950 c0 -5 5 -10 10 -10 6 0 10 5 10 10 0 6 -4 10 -10 10 -5 0
-10 -4 -10 -10z"/>
<path d="M1730 1920 c0 -5 5 -10 10 -10 6 0 10 5 10 10 0 6 -4 10 -10 10 -5 0
-10 -4 -10 -10z"/>
<path d="M2525 1911 c-17 -7 -8 -14 54 -45 47 -22 77 -32 81 -25 5 7 15 6 34
-1 33 -12 48 -6 39 17 -5 12 -2 15 10 10 9 -3 17 -2 17 2 0 5 -6 12 -12 14 -7
3 -2 6 12 7 l25 2 -25 7 c-40 12 -213 21 -235 12z m200 -70 c-6 -5 -25 10 -25
20 0 5 6 4 14 -3 8 -7 12 -15 11 -17z"/>
<path d="M1426 1876 c-37 -15 -62 -31 -67 -43 -7 -19 -69 -72 -69 -59 0 3 15
19 33 36 l32 32 -30 -15 c-16 -8 -43 -17 -58 -21 -20 -5 -33 -17 -43 -42 -8
-19 -12 -38 -10 -43 6 -9 -29 -41 -45 -41 -5 0 -7 -4 -4 -10 12 -19 30 -9 56
31 15 23 29 37 33 31 3 -5 -4 -20 -15 -33 -12 -13 -36 -42 -55 -63 -19 -22
-34 -34 -34 -28 0 7 -5 12 -12 12 -8 0 -6 -6 5 -17 15 -16 20 -13 71 33 67 61
116 103 121 104 3 0 42 26 87 57 58 39 83 62 83 76 0 28 -12 29 -79 3z m-26
-71 c-13 -14 -26 -23 -28 -20 -7 7 29 45 41 45 6 0 0 -11 -13 -25z m-120 -20
c-7 -8 -18 -15 -24 -15 -6 0 -2 7 8 15 25 19 32 19 16 0z"/>
<path d="M2873 1893 c-7 -2 -9 -11 -6 -19 3 -8 -1 -14 -10 -14 -8 0 -17 5 -19
10 -2 6 -9 1 -16 -11 -13 -20 -12 -21 12 -15 15 4 26 2 26 -4 0 -5 -6 -10 -12
-11 -57 -3 -69 -6 -79 -16 -16 -16 5 -41 49 -60 17 -7 32 -18 32 -23 0 -15 59
-93 77 -104 13 -7 13 -10 2 -17 -18 -11 -32 -11 -24 0 7 13 -24 43 -36 35 -6
-3 -8 -13 -4 -21 3 -9 -2 -24 -11 -34 -10 -11 -12 -19 -6 -19 7 0 12 -6 12
-14 0 -7 16 -24 35 -37 19 -13 35 -28 35 -34 0 -5 18 -36 40 -68 50 -72 52
-92 2 -38 -20 22 -43 41 -50 41 -7 0 -10 -4 -7 -10 3 -5 1 -19 -5 -30 -8 -14
-8 -20 0 -20 7 0 10 -6 7 -12 -2 -7 0 -24 5 -37 13 -37 2 -59 -27 -53 -14 2
-25 0 -25 -6 0 -6 -9 -14 -20 -17 -35 -11 -12 -23 27 -15 24 6 42 5 50 -2 10
-8 13 -6 13 6 0 9 5 16 10 16 6 0 10 -6 10 -14 0 -8 6 -17 13 -19 7 -3 5 -6
-5 -6 -21 -1 -22 -5 -7 -32 7 -15 7 -24 -1 -34 -10 -12 -7 -17 16 -26 23 -10
25 -13 12 -16 -10 -3 -19 -11 -19 -19 -1 -8 -2 -20 -3 -26 -1 -7 -8 -18 -16
-25 -13 -11 -13 -12 1 -13 9 0 22 7 29 15 7 8 20 15 30 15 22 0 35 43 21 69
-11 19 6 81 21 81 4 0 8 5 8 10 0 6 -9 10 -20 10 -13 0 -20 7 -20 20 0 12 -7
20 -17 20 -15 0 -15 1 -1 13 19 15 34 122 19 132 -6 3 -11 16 -11 29 0 12 -6
28 -12 34 -10 10 -10 17 0 32 11 18 10 20 -9 20 -11 0 -17 5 -14 10 3 6 1 10
-6 10 -10 0 -10 3 -1 12 17 17 15 25 -9 31 -23 6 -17 27 7 27 11 0 12 4 5 19
-6 10 -8 21 -4 24 3 4 -6 11 -20 16 -14 5 -28 15 -33 22 -4 8 -3 10 4 5 14 -9
16 6 3 20 -17 17 -16 60 2 78 9 10 17 24 17 32 0 8 4 14 8 14 9 0 9 36 0 45
-9 10 -62 22 -75 18z"/>
<path d="M2505 1859 c-4 -6 -5 -11 -4 -13 26 -19 80 -46 92 -46 31 0 27 19
-10 44 -40 28 -68 33 -78 15z"/>
<path d="M1676 1836 c7 -19 38 -22 32 -3 -3 6 -12 13 -21 15 -12 2 -15 -1 -11
-12z"/>
<path d="M1734 1839 c-10 -16 4 -23 42 -22 33 1 53 8 43 17 -11 9 -79 13 -85
5z"/>
<path d="M1850 1834 c0 -8 9 -14 20 -14 11 0 20 4 20 9 0 5 -9 11 -20 14 -13
3 -20 0 -20 -9z"/>
<path d="M1485 1820 c-16 -11 -25 -20 -19 -20 11 0 64 39 54 40 -3 0 -18 -9
-35 -20z"/>
<path d="M2290 1831 c0 -5 5 -13 10 -16 6 -3 10 -2 10 4 0 5 -4 13 -10 16 -5
3 -10 2 -10 -4z"/>
<path d="M2466 1832 c43 -38 96 -73 88 -60 -9 16 -79 68 -91 68 -4 0 -3 -4 3
-8z"/>
<path d="M1540 1821 c-30 -12 -80 -55 -80 -68 0 -24 26 -13 65 27 39 40 44 53
15 41z"/>
<path d="M1205 1810 c-8 -13 5 -13 25 0 13 8 13 10 -2 10 -9 0 -20 -4 -23 -10z"/>
<path d="M1547 1775 c-15 -14 -27 -31 -27 -37 0 -6 3 -8 7 -5 3 4 15 -1 25
-10 22 -19 36 -9 44 30 3 22 1 25 -13 20 -12 -5 -15 -2 -10 10 8 22 7 22 -26
-8z"/>
<path d="M2455 1780 c-6 -9 1 -14 18 -11 4 0 7 -5 7 -13 0 -12 8 -14 40 -6 8
1 -41 40 -51 40 -4 0 -11 -4 -14 -10z"/>
<path d="M2695 1749 c6 -16 4 -20 -6 -14 -8 4 2 -8 21 -28 21 -21 42 -34 53
-31 14 2 16 0 9 -9 -7 -8 -1 -20 19 -39 27 -24 30 -25 39 -9 6 12 5 22 -3 30
-9 10 -8 11 8 5 11 -3 -1 7 -27 25 -27 17 -48 33 -48 36 0 4 5 3 10 0 6 -3 10
-4 10 -2 0 6 -75 57 -84 57 -4 0 -4 -10 -1 -21z m125 -119 c0 -5 -2 -10 -4
-10 -3 0 -8 5 -11 10 -3 6 -1 10 4 10 6 0 11 -4 11 -10z"/>
<path d="M1353 1724 c-26 -20 -56 -44 -65 -53 -9 -9 -35 -29 -57 -46 -22 -16
-40 -36 -41 -42 0 -7 -3 -13 -8 -13 -4 0 -13 -9 -20 -20 -14 -24 1 -27 20 -4
7 8 21 24 31 35 9 10 14 19 10 19 -5 0 12 13 37 29 47 30 160 130 148 131 -3
0 -28 -16 -55 -36z"/>
<path d="M1411 1716 c-9 -11 -9 -15 1 -19 7 -3 1 -6 -13 -6 -14 -1 -34 -10
-44 -21 -10 -11 -23 -20 -30 -20 -7 0 -20 -9 -31 -21 -16 -17 -16 -22 -4 -29
17 -11 14 -10 57 -14 30 -3 33 0 53 50 12 30 27 54 34 54 6 0 5 4 -3 9 -7 5
-10 14 -7 20 10 16 1 14 -13 -3z"/>
<path d="M2606 1707 c59 -69 144 -139 162 -132 8 3 19 0 24 -7 4 -7 8 -8 8 -2
0 14 -86 110 -122 135 -16 11 -42 22 -59 24 l-32 4 19 -22z"/>
<path d="M2541 1693 c-7 -7 -18 -10 -24 -6 -7 4 -6 0 2 -10 7 -9 11 -17 7 -17
-7 0 46 -85 73 -117 20 -24 64 -30 91 -13 12 8 12 10 -3 16 -24 9 -21 24 6 24
19 0 13 9 -38 58 -75 71 -96 84 -114 65z m129 -154 c0 -5 -4 -9 -10 -9 -5 0
-10 7 -10 16 0 8 5 12 10 9 6 -3 10 -10 10 -16z"/>
<path d="M2440 1631 c0 -5 9 -13 20 -16 15 -5 18 -11 11 -23 -4 -9 -6 -23 -4
-29 3 -7 -1 -13 -9 -13 -23 0 -10 -81 13 -87 11 -3 19 -10 19 -16 0 -8 3 -8
11 0 6 6 23 8 43 3 30 -6 32 -5 30 19 0 14 -2 29 -4 34 -1 4 -3 10 -4 15 -16
67 -60 122 -97 122 -16 0 -29 -4 -29 -9z"/>
<path d="M1267 1582 c-16 -2 -27 -8 -24 -15 4 -13 63 -22 70 -10 9 14 -17 28
-46 25z"/>
<path d="M1308 1533 c-29 -5 -29 -32 1 -34 10 0 11 -2 4 -6 -20 -7 -15 -23 6
-23 14 0 20 9 23 35 2 19 2 34 -2 34 -3 -1 -17 -4 -32 -6z"/>
<path d="M1136 1507 c-33 -20 -60 -46 -54 -53 11 -10 65 25 71 46 3 11 4 20 4
19 -1 0 -11 -6 -21 -12z"/>
<path d="M1157 1472 c-15 -15 -27 -35 -27 -44 0 -9 -5 -20 -10 -23 -8 -5 -7
-11 1 -21 9 -12 9 -20 -2 -40 -11 -21 -11 -27 1 -34 12 -7 11 -10 -5 -16 -11
-5 -26 -13 -33 -20 -10 -10 -4 -13 28 -12 22 0 43 4 46 9 3 5 0 9 -5 9 -6 0
-11 7 -11 15 0 8 7 15 15 15 13 0 15 7 10 34 -5 25 -3 36 8 42 16 10 31 74 17
74 -4 0 -6 9 -3 20 7 27 2 25 -30 -8z"/>
<path d="M1260 1480 c0 -6 7 -10 15 -10 8 0 15 2 15 4 0 2 -7 6 -15 10 -8 3
-15 1 -15 -4z"/>
<path d="M1355 1481 c-3 -5 2 -11 10 -15 8 -3 17 -1 20 3 3 5 -2 11 -10 15 -8
3 -17 1 -20 -3z"/>
<path d="M2835 1470 c3 -5 8 -10 11 -10 2 0 4 5 4 10 0 6 -5 10 -11 10 -5 0
-7 -4 -4 -10z"/>
<path d="M2890 1460 c0 -5 5 -10 11 -10 5 0 7 5 4 10 -3 6 -8 10 -11 10 -2 0
-4 -4 -4 -10z"/>
<path d="M2780 1450 c0 -5 5 -10 11 -10 5 0 7 5 4 10 -3 6 -8 10 -11 10 -2 0
-4 -4 -4 -10z"/>
<path d="M1335 1417 c-19 -46 -19 -61 1 -53 9 3 22 6 30 6 8 0 14 5 14 11 0 5
-4 7 -10 4 -5 -3 -10 0 -10 8 0 10 8 13 25 9 19 -3 25 0 25 13 0 9 -6 15 -12
12 -7 -2 -21 2 -30 11 -16 14 -19 12 -33 -21z m30 13 c3 -5 1 -10 -4 -10 -6 0
-11 5 -11 10 0 6 2 10 4 10 3 0 8 -4 11 -10z"/>
<path d="M2560 1410 c0 -5 9 -10 20 -10 11 0 20 -4 20 -9 0 -9 -30 -3 -73 14
-12 5 -16 3 -12 -6 6 -15 104 -83 111 -77 4 4 -17 67 -29 86 -10 14 -37 16
-37 2z"/>
<path d="M1290 1399 c0 -5 5 -7 10 -4 6 3 10 8 10 11 0 2 -4 4 -10 4 -5 0 -10
-5 -10 -11z"/>
<path d="M2875 1400 c-3 -5 -1 -10 4 -10 6 0 11 5 11 10 0 6 -2 10 -4 10 -3 0
-8 -4 -11 -10z"/>
<path d="M2557 1319 c12 -12 25 -20 28 -17 3 3 -7 13 -22 23 l-28 17 22 -23z"/>
<path d="M2870 1321 c0 -5 -9 -7 -20 -4 -11 3 -20 0 -20 -6 0 -6 11 -11 25
-11 16 0 25 6 25 15 0 8 -2 15 -5 15 -3 0 -5 -4 -5 -9z"/>
<path d="M1115 1230 c3 -5 10 -10 16 -10 5 0 9 5 9 10 0 6 -7 10 -16 10 -8 0
-12 -4 -9 -10z"/>
<path d="M2447 1223 c-13 -12 -7 -21 21 -27 15 -4 36 -9 47 -12 16 -5 14 0 -9
20 -29 26 -47 32 -59 19z"/>
<path d="M2560 1185 c7 -9 15 -13 17 -11 7 7 -7 26 -19 26 -6 0 -6 -6 2 -15z"/>
<path d="M1398 1092 c-16 -9 -28 -20 -28 -24 0 -11 64 18 68 31 5 15 -8 13
-40 -7z"/>
<path d="M2964 996 c-18 -14 -18 -15 -1 -22 22 -8 39 6 28 24 -6 9 -11 9 -27
-2z"/>
<path d="M2965 940 c3 -5 13 -10 21 -10 8 0 12 5 9 10 -3 6 -13 10 -21 10 -8
0 -12 -4 -9 -10z"/>
<path d="M1450 893 c0 -7 8 -13 18 -13 13 0 14 -2 4 -9 -17 -11 19 -22 47 -14
20 5 20 5 0 27 -22 23 -69 30 -69 9z"/>
<path d="M1245 880 c-4 -6 5 -10 20 -10 15 0 24 4 20 10 -3 6 -12 10 -20 10
-8 0 -17 -4 -20 -10z"/>
<path d="M1561 880 c-8 -4 -12 -17 -8 -28 2 -12 0 -23 -6 -25 -15 -5 -57 4
-57 12 0 8 -137 8 -145 -1 -4 -4 20 -20 54 -35 41 -19 61 -34 61 -45 0 -10 3
-17 8 -17 19 3 30 -2 36 -17 6 -14 0 -16 -41 -11 -27 3 -75 9 -108 13 l-60 6
40 -29 c48 -34 89 -53 115 -53 11 0 20 -6 20 -14 0 -21 -25 -37 -46 -30 -34
11 -69 28 -86 42 -20 17 -53 12 -53 -8 0 -8 11 -20 25 -27 14 -7 36 -21 50
-33 14 -11 34 -27 45 -35 20 -15 20 -16 1 -28 -44 -28 -58 -48 -45 -63 9 -11
14 -12 19 -4 5 8 9 6 14 -5 4 -11 12 -14 26 -10 19 6 20 4 14 -22 -7 -26 -6
-27 9 -11 9 9 25 14 36 11 18 -5 18 -6 -2 -26 -12 -12 -24 -22 -27 -22 -3 -1
-15 -6 -28 -14 -19 -10 -21 -15 -11 -27 6 -8 22 -14 35 -14 53 0 33 -51 -28
-69 -43 -13 -52 -34 -10 -26 15 3 20 2 12 -2 -8 -3 -21 -12 -29 -20 -7 -8 -26
-17 -41 -20 -19 -3 -27 -10 -23 -19 6 -17 50 -18 56 -1 3 7 6 5 6 -5 1 -13 -7
-18 -23 -18 -24 0 -41 -23 -30 -41 3 -5 12 -9 20 -9 8 0 17 -7 20 -15 4 -8 14
-15 24 -15 9 0 30 -10 46 -23 28 -22 32 -22 416 -25 347 -3 388 -2 388 12 0 9
-7 16 -15 16 -22 0 -18 17 6 23 16 4 19 11 15 29 -3 13 -3 17 0 11 8 -18 25
-16 18 1 -4 10 5 16 28 21 18 4 41 14 51 23 15 14 17 13 17 -3 0 -14 3 -15 15
-5 11 9 12 16 4 26 -6 7 -15 12 -19 11 -4 -1 -8 3 -9 8 -1 6 2 10 7 11 4 0 16
5 26 9 12 5 21 5 23 -1 4 -12 71 -10 84 3 7 7 1 15 -21 24 -29 13 -30 17 -25
52 4 20 3 37 -2 37 -15 0 -33 -23 -33 -41 0 -21 -29 -46 -38 -33 -4 6 -15 13
-24 17 -13 5 -16 14 -11 41 5 34 4 35 -23 33 -20 -1 -29 3 -32 16 -5 25 25 33
48 12 16 -15 22 -15 35 -5 12 10 15 10 15 -1 1 -10 4 -9 11 3 8 14 14 15 37 7
48 -19 61 -18 76 2 11 16 26 21 79 22 36 1 69 7 76 15 9 9 9 12 0 12 -6 0 -26
7 -45 16 -31 15 -36 15 -60 0 -31 -21 -68 -17 -72 7 -3 13 3 17 23 17 23 0 24
2 15 20 -9 17 -7 22 17 31 15 6 65 10 110 11 l82 0 -15 24 c-27 41 -138 59
-181 29 -12 -9 -26 -14 -30 -13 -4 1 -17 -3 -29 -9 -11 -6 -42 -13 -70 -15
-38 -2 -49 0 -49 12 0 8 11 16 25 18 14 2 29 8 35 13 5 5 20 9 35 9 27 1 67
25 53 33 -4 3 -31 5 -59 5 -28 0 -65 7 -83 16 -17 9 -36 14 -41 11 -6 -3 -10
-2 -10 4 0 5 16 15 35 22 23 9 32 16 25 23 -6 6 -10 18 -10 28 0 13 8 18 29
18 54 0 48 34 -7 42 -18 3 -35 1 -38 -4 -3 -4 -14 -3 -24 2 -23 12 -70 6 -80
-10 -4 -7 -10 -11 -14 -11 -20 3 -26 -1 -26 -18 0 -10 -6 -24 -13 -30 -11 -8
-16 -5 -25 14 -14 30 -32 33 -32 4 0 -11 -4 -18 -9 -14 -6 3 -15 -4 -21 -15
-6 -11 -17 -20 -25 -20 -8 0 -15 -5 -15 -11 0 -5 -4 -7 -10 -4 -8 5 -12 -11
-9 -42 0 -5 6 -7 12 -6 7 2 18 -11 26 -29 20 -45 73 -95 57 -53 -9 26 8 16 31
-17 17 -24 20 -36 12 -50 -6 -11 -8 -22 -5 -26 3 -3 6 0 6 6 0 7 5 12 11 12 7
0 9 -15 6 -45 -7 -53 -23 -85 -42 -85 -8 0 -15 -7 -15 -16 0 -10 -5 -14 -16
-10 -15 6 -94 -66 -94 -86 0 -5 -9 -18 -20 -30 -11 -12 -20 -29 -20 -37 0 -19
-27 9 -84 87 -21 28 -42 52 -47 52 -5 0 -9 6 -9 13 0 13 -63 67 -79 67 -6 0
-11 4 -11 10 0 17 -60 4 -75 -16 -8 -10 -15 -15 -15 -10 0 5 -6 4 -13 -2 -10
-9 -19 -8 -35 3 -20 15 -20 17 -6 66 9 28 14 65 13 82 -2 19 9 54 25 85 25 49
26 55 12 71 -9 10 -16 34 -16 54 0 35 -1 37 -27 31 -23 -6 -25 -4 -21 14 3 12
1 23 -6 25 -14 5 11 37 27 34 6 -1 13 6 15 15 2 12 -1 16 -11 12 -8 -3 -17 2
-20 10 -8 21 -41 36 -56 26z m109 -256 c0 -8 -4 -14 -10 -14 -5 0 -10 9 -10
21 0 11 5 17 10 14 6 -3 10 -13 10 -21z m670 -94 c0 -5 -7 -10 -15 -10 -8 0
-15 5 -15 10 0 6 7 10 15 10 8 0 15 -4 15 -10z m90 -90 c0 -5 -2 -10 -4 -10
-3 0 -8 5 -11 10 -3 6 -1 10 4 10 6 0 11 -4 11 -10z m-870 -22 c0 6 5 12 10
12 6 0 10 -9 10 -21 0 -15 -4 -19 -16 -15 -9 3 -18 6 -20 6 -2 0 -4 8 -4 18 0
14 2 15 10 2 6 -10 10 -11 10 -2z m14 -133 c-4 -8 -8 -15 -10 -15 -2 0 -4 7
-4 15 0 8 4 15 10 15 5 0 7 -7 4 -15z m729 -27 c-9 -11 -19 -15 -21 -9 -4 13
20 40 31 34 5 -3 0 -14 -10 -25z m-759 4 c-15 -9 -22 -46 -9 -49 6 -1 9 7 7
19 -2 12 0 18 7 14 15 -10 14 -45 -3 -61 -9 -10 -16 -11 -24 -3 -13 13 -32 2
-32 -17 0 -17 -42 -30 -66 -21 -24 9 -7 26 27 26 24 0 29 4 29 24 0 16 -7 27
-22 32 -19 6 -19 7 -4 16 9 5 25 7 35 3 12 -3 21 0 25 10 3 8 13 15 23 15 12
0 14 -3 7 -8z m656 -42 c0 -5 -2 -10 -4 -10 -3 0 -8 5 -11 10 -3 6 -1 10 4 10
6 0 11 -4 11 -10z m90 -30 c0 -5 -5 -10 -11 -10 -5 0 -7 5 -4 10 3 6 8 10 11
10 2 0 4 -4 4 -10z m-610 -40 c0 -5 -4 -10 -10 -10 -5 0 -10 5 -10 10 0 6 5
10 10 10 6 0 10 -4 10 -10z"/>
<path d="M1490 220 c0 -5 5 -10 10 -10 6 0 10 5 10 10 0 6 -4 10 -10 10 -5 0
-10 -4 -10 -10z"/>
<path d="M2965 860 c3 -5 14 -10 23 -10 15 0 15 2 2 10 -20 13 -33 13 -25 0z"/>
<path d="M1640 790 c0 -5 5 -10 10 -10 6 0 10 5 10 10 0 6 -4 10 -10 10 -5 0
-10 -4 -10 -10z"/>
<path d="M2570 770 c0 -6 7 -10 15 -10 8 0 15 2 15 4 0 2 -7 6 -15 10 -8 3
-15 1 -15 -4z"/>
<path d="M2040 730 c-13 -9 -13 -11 0 -20 10 -6 16 -6 18 0 7 20 -3 30 -18 20z"/>
<path d="M2619 693 c-1 -5 -1 -11 0 -15 0 -5 -8 -8 -19 -8 -11 0 -20 -4 -20
-10 0 -14 16 -12 51 5 16 9 27 20 24 25 -7 12 -34 13 -36 3z"/>
<path d="M2675 690 c3 -5 8 -10 11 -10 2 0 4 5 4 10 0 6 -5 10 -11 10 -5 0 -7
-4 -4 -10z"/>
<path d="M2536 634 c-4 -11 -1 -14 11 -12 9 2 18 9 21 16 6 18 -25 15 -32 -4z"/>
<path d="M1320 520 c0 -5 7 -10 16 -10 8 0 12 5 9 10 -3 6 -10 10 -16 10 -5 0
-9 -4 -9 -10z"/>
<path d="M1313 363 c-13 -2 -23 -8 -23 -12 0 -14 24 -31 45 -31 16 0 21 6 20
22 -2 24 -9 27 -42 21z"/>
<path d="M1376 321 c-4 -7 -5 -15 -2 -18 9 -9 19 4 14 18 -4 11 -6 11 -12 0z"/>
<path d="M2370 309 c0 -5 5 -7 10 -4 6 3 10 8 10 11 0 2 -4 4 -10 4 -5 0 -10
-5 -10 -11z"/>
<path d="M1338 283 c7 -3 16 -2 19 1 4 3 -2 6 -13 5 -11 0 -14 -3 -6 -6z"/>
<path d="M1340 256 c0 -2 7 -7 16 -10 8 -3 12 -2 9 4 -6 10 -25 14 -25 6z"/>
<path d="M1305 220 c-3 -5 -1 -10 4 -10 6 0 11 5 11 10 0 6 -2 10 -4 10 -3 0
-8 -4 -11 -10z"/>
<path d="M2406 115 c-3 -8 4 -24 17 -35 18 -18 20 -22 7 -30 -19 -12 -27 -12
-34 -1 -10 15 -48 0 -42 -16 3 -8 1 -11 -4 -8 -6 3 -10 12 -10 20 0 8 -4 17
-10 20 -6 4 -10 -8 -10 -28 0 -34 0 -34 45 -34 40 0 44 2 33 16 -10 12 -7 12
16 -3 22 -14 30 -15 36 -5 7 10 11 10 24 -1 9 -7 19 -10 23 -6 3 3 1 6 -5 6
-6 0 -9 6 -6 13 2 7 -9 31 -26 52 -16 21 -30 42 -30 46 0 15 -17 10 -24 -6z"/>
<path d="M2525 60 c-3 -5 1 -10 10 -10 9 0 13 5 10 10 -3 6 -8 10 -10 10 -2 0
-7 -4 -10 -10z"/>
<path d="M2545 10 c3 -5 11 -10 16 -10 6 0 7 5 4 10 -3 6 -11 10 -16 10 -6 0
-7 -4 -4 -10z"/>
</g>
</svg>
